# xmcd
#
# Track frame offsets: 
#        150
#        12230
#        24661
#        38912
#        50114
#        60693
#        74661
#        85198
#        98333
#        111089
#        122020
#        132060
#        148463
#        158141
#        168978
#        179311
#        190174
#        205501
#        216414
#        228256
#        239016
#        249476
#        261277
#        274811
#        288114
#
# Disc length: 3988 seconds
#
# Revision: 0
# Processed by: cddbd v1.5.2PL0 Copyright (c) Steve Scherf et al.
# Submitted via: ExactAudioCopy v0.99pb5
#
DISCID=700f9219
DTITLE=Various Artist - Broken Hearts - CD4
DYEAR=1960
DGENRE=Blues
TTITLE0=Lefty Frizzell - Two Hearts Broken Now (1953)
TTITLE1=Ruth Brown - Ever Since My Baby's Gone (1953)
TTITLE2=Lowell Fulson - Reconsider Baby (1954)
TTITLE3=B.B. King - Bye Bye Baby (1953)
TTITLE4=Jim Reeves - Where Does A Broken Heart Go (1954)
TTITLE5=Ray Charles - Come Back Baby (1954)
TTITLE6=Fats Domino - You Can Pack Your Suitcase (1954)
TTITLE7=Little Walter - Last Night (1954)
TTITLE8=Lefty Frizzell - I'll Sit Alone And Cry (1955)
TTITLE9=Johnny Cash - Cry! Cry! Cry! (1955)
TTITLE10=Elvis Presley - My Baby Left Me (1956)
TTITLE11=Otis Rush - I Can't Quit You Baby (1956)
TTITLE12=Elvis Presley - Heartbreak Hotel (1956)
TTITLE13=Hayden Thompson - One Broken Heart (1957)
TTITLE14=Connie Francis - Who's Sorry Now (1957)
TTITLE15=Everly Brothers - Bye Bye Love (1957)
TTITLE16=Billie Holiday - Let's Call The Whole Thing Off (1957)
TTITLE17=Little Richard - Can't Believe You Wanna Leave (1956)
TTITLE18=Jackie Wilson - Lonely Teardrops (1958)
TTITLE19=James Brown - Tell Me What I Did Wrong (1958)
TTITLE20=Jerry Lee Lewis - Break Up (1958)
TTITLE21=Buddy Guy - Try To Quit You Baby (1958)
TTITLE22=Billie Holiday - I Get Along Without You Very Well (1958)
TTITLE23=Etta James - All I Could Do Was Cry (1960)
TTITLE24=Jackie and The Starlites - Valarie (1960)
EXTD=
EXTT0=
EXTT1=
EXTT2=
EXTT3=
EXTT4=
EXTT5=
EXTT6=
EXTT7=
EXTT8=
EXTT9=
EXTT10=
EXTT11=
EXTT12=
EXTT13=
EXTT14=
EXTT15=
EXTT16=
EXTT17=
EXTT18=
EXTT19=
EXTT20=
EXTT21=
EXTT22=
EXTT23=
EXTT24=
PLAYORDER=
